<svg xmlns="http://www.w3.org/2000/svg" width="256" height="256"><path fill-opacity=".016" d="M0 128.004v128.004l128.25-.254 128.25-.254.254-127.75L257.008 0H0v128.004m.485.496c0 70.4.119 99.053.265 63.672.146-35.38.146-92.98 0-128C.604 29.153.485 58.1.485 128.5" fill="#1976D2" fill-rule="evenodd"/><path fill-opacity=".071" d="M42.853 16.281c-6.063 4.625-9.688 10.252-11.438 17.754-1.359 5.825-1.35 7.106.091 12.964 3.268 13.279 13.601 21.978 24.564 20.679 2.662-.315 5.971-1.314 7.353-2.22 1.382-.905 2.922-1.491 3.422-1.302 1.136.43 11.134 12.101 11.146 13.011.005.367-2.007 4.077-4.47 8.244-2.464 4.168-4.776 8.817-5.138 10.333-.362 1.516-1 3.206-1.416 3.756-.576.76-4.969 20.789-4.967 22.645.001.195-3.487.288-7.75.206l-7.75-.149-1.5-3.899c-3.496-9.087-8.69-14.243-16.766-16.641-4.684-1.391-5.766-1.396-10.294-.052-6.392 1.899-11.985 6.917-15.332 13.758C.479 119.72 0 122.125 0 128.46c0 6.794.394 8.499 3.164 13.696 5.237 9.826 13.938 14.817 23.199 13.307 8.108-1.322 16.379-8.985 18.578-17.213l1.136-4.25h15.545l1.137 4.75c.625 2.613 1.442 6.775 1.814 9.25.917 6.083 5.585 17.978 9.893 25.211 1.944 3.263 3.534 6.161 3.534 6.44 0 .279-2.356 3.284-5.235 6.678-2.879 3.394-5.284 6.289-5.345 6.433-.061.144-2.271-.693-4.912-1.862-13.234-5.853-26.949 2.535-30.969 18.943-1.555 6.342-1.558 7.293-.052 13.105 2.471 9.538 7.646 16.643 13.828 18.985 3.621 1.372 13.737 1.375 17.37.006 4.25-1.603 9.28-6.849 11.928-12.439 2.916-6.159 3.305-18.166.791-24.448l-1.596-3.989 5.331-6.282c2.931-3.454 5.429-6.448 5.551-6.653.121-.204 3.053 1.868 6.515 4.605 7.338 5.8 17.262 10.745 24.819 12.366 8.043 1.724 25.236.663 31.976-1.975 7.59-2.969 10.533-4.688 17.706-10.338l6.207-4.889 3.58 3.964c7.85 8.688 8.73 10.516 6.257 12.989-.838.838-1.247 4.611-1.24 11.45.009 8.988.296 10.675 2.416 14.2 3.496 5.812 7.129 9.556 10.792 11.123 4.127 1.766 14.397 1.773 18.609.014 5.226-2.184 11.063-9.623 12.991-16.555 2.099-7.55 2.099-9.614 0-17.164-4.101-14.748-19.106-22.95-30.857-16.867l-3.961 2.05-4.339-4.8c-7.689-8.509-7.69-8.512-4.512-13.471 7.091-11.065 10.328-20.292 13.019-37.118l.606-3.788 8.005.288 8.006.288 1.26 4.278c1.604 5.443 5.51 10.569 10.646 13.967 5.372 3.555 15.553 3.814 20.858.531 8.739-5.409 12.07-11.66 12.703-23.84.426-8.213.235-9.528-2.035-14.008-9.331-18.414-29.011-19.648-39.885-2.502-1.558 2.456-2.832 5.469-2.832 6.696 0 2.105-.474 2.249-8.404 2.555l-8.405.323-.564-3.5c-2.508-15.542-6.208-26.514-12.245-36.312-3.908-6.342-3.982-5.632 1.186-11.297.588-.644 2.288-2.62 3.779-4.392l2.71-3.221 5.161 2.22c13.234 5.694 27.266-3.429 30.786-20.015 1.181-5.565 1.133-7.038-.413-12.839-2.342-8.792-5.777-13.623-12.746-17.93-4.534-2.803-15.049-3.116-18.872-.563-4.659 3.111-9.149 7.85-11.226 11.849-2.98 5.736-3.576 17.754-1.207 24.342l1.789 4.975-5.772 6.575-5.772 6.575-5.115-4.474c-6.087-5.325-16.747-10.722-25.501-12.91-16.609-4.152-35.09.413-49.849 12.313l-6.18 4.983-4.336-5.189c-7.619-9.12-7.243-8.246-5.308-12.323 1.363-2.873 1.646-5.58 1.332-12.764-.373-8.525-.638-9.475-4.067-14.611C67.512 16.134 62.085 13 53.723 13c-5.882 0-7.017.343-10.87 3.281M.355 128.5c-.003 4.95.166 7.101.376 4.78.209-2.321.212-6.371.005-9-.206-2.629-.378-.73-.381 4.22m136.458 23.183c.721.289 1.584.253 1.916-.079.332-.332-.258-.568-1.312-.525-1.165.048-1.402.285-.604.604m-10.549 2.035c1.52.229 3.77.223 5-.014 1.23-.237-.014-.425-2.764-.418-2.75.008-3.756.202-2.236.432m-25.185 3.865c.048 1.165.285 1.402.604.605.289-.722.253-1.585-.079-1.917-.332-.332-.568.258-.525 1.312m7.19 7.11c.973.254 2.323.237 3-.037.677-.274-.119-.481-1.769-.461-1.65.02-2.204.244-1.231.498m37.481-.031c.688.278 1.813.278 2.5 0 .688-.277.125-.504-1.25-.504s-1.937.227-1.25.504m-28.988 1.045c1.244.239 3.044.23 4-.02s-.062-.446-2.262-.435c-2.2.011-2.982.216-1.738.455m20.488-.018c.963.252 2.537.252 3.5 0 .963-.251.175-.457-1.75-.457s-2.713.206-1.75.457" fill="#1976D2" fill-rule="evenodd"/><path fill-opacity=".249" d="M43.615 16.42c-6.191 4.245-10.18 10.166-11.664 17.315-4.453 21.45 13.211 39.272 30.948 31.225 2.419-1.097 4.467-1.875 4.549-1.728.083.148 2.748 3.278 5.921 6.958l5.77 6.69-4.002 6.635c-5.211 8.639-9.716 21.226-11.062 30.903-.591 4.25-1.075 7.937-1.075 8.193 0 .257-3.868.337-8.596.178l-8.595-.289-1.303-3.797c-3.707-10.806-11.693-17.061-21.66-16.968-6.716.064-11.689 2.669-16.425 8.604-5.33 6.68-8.249 20.072-5.543 25.425.483.955 1.553 3.324 2.378 5.265 2.143 5.038 6.388 9.749 10.83 12.015 4.714 2.405 12.801 2.567 17.214.344 6.722-3.386 13.7-12.222 13.7-17.348 0-1.122.45-2.063 1-2.09.55-.027 4.487-.077 8.75-.11l7.75-.06.816 4.86c2.434 14.503 9.31 32.974 14.344 38.537 1.83 2.022 1.605 2.46-5.4 10.503l-5.382 6.181-3.189-1.857c-10.434-6.076-22.821-1.245-29.481 11.496-2.184 4.177-2.614 6.316-2.614 13 0 6.693.432 8.832 2.639 13.09 2.776 5.355 8.312 10.906 12.443 12.477 3.615 1.374 11.919 1.135 15.606-.451 11.575-4.977 17.832-22.399 12.8-35.643l-1.919-5.049 5.969-6.917 5.969-6.918 5.86 4.722c11.193 9.02 20.958 12.933 34.539 13.841 14.588.976 28.003-3.517 40.139-13.444l6.138-5.02 3.376 3.656a729.244 729.244 0 0 1 6.121 6.721l2.746 3.065-2.01 5.842c-2.573 7.477-2.542 13.03.111 20.121C186.065 237.135 193.505 243 202.933 243c6.389 0 10.606-1.727 14.905-6.102 6.048-6.156 7.597-10.315 7.597-20.398 0-10.037-1.67-14.581-7.502-20.414-6.84-6.839-15.624-8.433-23.615-4.285l-4.183 2.171-6.02-7.236c-5.571-6.697-5.912-7.385-4.566-9.236 3.074-4.227 9.267-17.265 10.927-23 .954-3.3 2.252-9.375 2.883-13.5.631-4.125 1.484-7.387 1.894-7.25.411.137 4.347.25 8.747.25 6.536 0 8 .282 8 1.54 0 2.342 3.894 9.61 6.86 12.802 8.748 9.416 22.677 8.858 31.333-1.255 11.037-12.894 7.964-34.609-6.065-42.851-5.981-3.514-14.222-3.577-19.949-.153-5.23 3.127-10.002 9.226-11.448 14.632L211.585 123h-17.282l-1.178-8.25c-1.722-12.062-5.668-23.006-11.694-32.425l-3.375-5.276 6.061-7.025c3.333-3.863 6.151-7.024 6.26-7.024.11 0 1.965.9 4.123 2 7.423 3.785 17.749 1.767 23.66-4.624 5.461-5.903 7.341-11.133 7.326-20.376-.02-12.27-3.852-19.168-13.793-24.831C207.807 12.955 197 12.016 197 13.892c0 .49-1.066 1.159-2.368 1.486-4.276 1.073-10.311 8.215-12.553 14.855-2.552 7.557-2.584 12.614-.125 19.739 1.039 3.01 1.615 5.935 1.279 6.5-.335.566-3.063 3.821-6.06 7.234l-5.451 6.206-5.324-4.745c-11.227-10.006-25.024-14.699-40.892-13.909-14.166.705-26.857 6.048-36.628 15.423l-3.622 3.475-6.003-7.347-6.003-7.346 1.966-4.982c4.631-11.736.089-26.686-10.239-33.7C60.293 13.6 58.704 13.062 54 13.066c-4.595.004-6.304.556-10.385 3.354m5.835 7.987c-9.158 3.989-12.212 16.77-6.295 26.343 3.044 4.926 11.635 7.969 15.483 5.485 4.375-2.826 6.093-19.131 2.851-27.063-2.408-5.894-6.097-7.354-12.039-4.765m148.929-.009c-8.223 3.681-11.728 15.118-7.383 24.093 2.614 5.401 5.393 7.483 10.988 8.234 5.026.674 7.555-1.299 9.12-7.112 2.157-8.011.686-21.883-2.611-24.619-2.104-1.746-6.913-2.029-10.114-.596m-82.104 38.085C97.472 67.748 82.423 83.166 75.264 104.5c-2.47 7.361-2.683 9.279-2.674 24 .011 17.151.802 20.974 7.098 34.299 11.099 23.491 37.15 37.452 59.312 31.787 10.251-2.621 14.601-5.205 20.004-11.882 8.865-10.957 13.957-21.887 17.034-36.564 4.718-22.505.116-47.277-12.205-65.698-9.362-13.997-17.297-18.545-33.333-19.107-5.774-.202-10.873.21-14.225 1.148m5.225 17.719c-3.716 1.293-9.357 6.459-10.698 9.798-1.405 3.499-3.116 14.63-3.075 20 .024 3.091 1.276 7.165 3.997 13.009 6.432 13.81 13.431 18.228 22.516 14.209 5.15-2.278 7.071-4.74 12.266-15.718l3.785-8-1.033-10.07c-1.051-10.243-3.167-16.231-6.938-19.642-4.792-4.333-14.077-5.932-20.82-3.586m-1.048 12.444c-1.896 2.046-2.452 3.737-2.452 7.453 0 2.644-.501 5.906-1.113 7.25-.958 2.102-.505 3.677 3.25 11.297 3.678 7.463 4.776 8.902 6.993 9.159 2.359.273 2.962-.396 5.855-6.5 1.855-3.913 3.257-8.505 3.3-10.805.085-4.665-1.777-17.87-2.742-19.43-.363-.588-2.906-1.07-5.65-1.07-4.11 0-5.42.466-7.441 2.646M15.607 114.095c-1.465 1.152-3.55 3.834-4.635 5.96-5.418 10.62 1.599 25.012 12.146 24.913 5.698-.053 7.748-3.034 9.388-13.647.672-4.35-1.595-15.518-3.653-17.998-1.787-2.153-10.147-1.666-13.246.772m209.952.987c-10.682 9.379-4.827 29.9 8.536 29.914 2.193.003 4.176-.678 5.085-1.746 4.592-5.391 5.589-18.463 2.023-26.523L239.112 112h-5.021c-4.183 0-5.607.515-8.532 3.082M.328 128.5c.005 3.85.185 5.302.402 3.228.216-2.075.213-5.225-.008-7-.221-1.776-.398-.078-.394 3.772m104.295 10.947c-8.149 5.253-11.01 8.974-13.085 17.013-3.053 11.83-1.789 14.189 9.385 17.517 15.254 4.543 39.926 4.515 55.42-.062 10.221-3.02 11.025-3.947 10.292-11.866-.36-3.884-1.639-8.58-3.214-11.8-2.173-4.44-3.885-6.188-10.092-10.298-4.112-2.723-8.144-4.951-8.961-4.951-.817 0-3.259 1.425-5.427 3.168-3.002 2.412-5.194 3.271-9.192 3.602-4.73.391-5.778.078-10.599-3.168-2.943-1.981-5.868-3.599-6.5-3.595-.633.003-4.245 2.002-8.027 4.44m2.138 9.867c-4.804 3.229-8.654 9.916-7.477 12.983.298.776 4.152 2.17 8.871 3.207 9.557 2.101 31.697 2.459 38.43.622l4.086-1.114-.826-6.037c-.836-6.114-3.171-11.975-4.771-11.975-.482 0-3.283 1.121-6.225 2.49-7.953 3.703-18.488 2.862-23.744-1.895-2.328-2.107-2.797-2.01-8.344 1.719M49.02 201.25c-5.726 2.926-7.917 6.084-8.678 12.507-.719 6.076 1.335 12.652 5.04 16.132 2.567 2.412 8.157 3.695 11.951 2.742 3.482-.874 5.871-7.405 5.901-16.131.032-9.149-2.256-14.963-6.464-16.43-1.688-.589-3.131-1.07-3.207-1.07-.077 0-2.121 1.012-4.543 2.25m149.381-.345c-5.37 2.439-8.598 7.091-9.189 13.241-.55 5.722 1.657 12.443 5.17 15.743 2.567 2.412 8.157 3.695 11.951 2.742 5.1-1.28 7.696-16.259 4.596-26.515-1.038-3.431-2.037-4.681-4.595-5.75-3.927-1.641-2.992-1.704-7.933.539" fill="#1976D2" fill-rule="evenodd"/><path fill-opacity=".652" d="M50.5 14c-.34.55-1.403 1-2.362 1-3.389 0-9.978 5.973-12.679 11.494-6.867 14.037-2.427 31.4 9.598 37.535 5.212 2.659 13.271 2.615 18.337-.1 2.125-1.139 4.197-1.702 4.604-1.25.407.452 3.266 3.835 6.353 7.519l5.612 6.699-4.289 7.301c-6.153 10.474-10.778 24.596-11.889 36.302l-.285 3-9.11.286-9.11.285-1.261-4.503c-1.8-6.43-6.465-12.254-12.104-15.111-8.029-4.069-15.897-2.739-22.742 3.844C5.632 111.706 2 118.585 2 121.886c0 1.098-.45 2.274-1 2.614-1.3.803-1.3 7.197 0 8 .55.34 1 1.506 1 2.592 0 3.415 4.778 11.58 8.64 14.763 6.663 5.492 16.719 5.861 24.022.882 3.737-2.547 7.956-8.74 9.53-13.987.619-2.062 1.503-3.773 1.966-3.8.463-.027 4.217-.05 8.342-.05 4.125 0 7.95.023 8.5.05.55.027 1 1.597 1 3.488 0 8.814 5.496 25.809 11.878 36.73l3.89 6.657-3.053 3.838c-1.679 2.11-4.6 5.481-6.492 7.49l-3.439 3.652-3.507-2.069c-4.371-2.579-13.366-2.791-17.927-.424C37.901 196.18 32 206.871 32 216.5c0 9.37 5.897 20.327 12.885 23.94 10.147 5.248 22.312.596 28.43-10.872 2.829-5.301 3.142-20.34.523-25.068-1.643-2.966-1.621-3.051 1.918-7.5 1.968-2.475 4.919-5.94 6.558-7.699l2.98-3.199 5.103 4.466c6.424 5.622 19.29 11.985 27.037 13.371 17.854 3.193 36.54-1.917 49.45-13.525 2.608-2.345 5.164-3.96 5.679-3.589.515.371 3.571 3.722 6.791 7.447l5.853 6.771-1.537 3.241c-3.785 7.976-2.983 20.092 1.836 27.726 9.248 14.65 27.635 13.987 36.108-1.302 2.582-4.659 2.886-6.156 2.886-14.208 0-8.221-.269-9.476-3.106-14.5-4.294-7.603-10.322-11.333-18.316-11.333-4.143 0-6.885.612-9.404 2.098l-3.557 2.098-5.671-6.643c-3.119-3.654-5.89-7.214-6.158-7.911-.267-.696 1.266-4.313 3.406-8.038C188.191 160.968 193 146.236 193 137.638c0-1.781.425-3.666.945-4.188.52-.522 4.77-.805 9.444-.628l8.498.322 1.633 4.915c3.905 11.76 14.716 18.323 25.55 15.513 8.323-2.159 13.697-8.418 16.514-19.234 1.666-6.394 1.803-9.981.416-10.838-.55-.34-1-1.509-1-2.599 0-2.82-3.311-8.939-6.636-12.265-11.643-11.642-28.464-7.037-34.471 9.436l-2.187 5.999-9.103-.285-9.103-.286-.282-4c-.767-10.859-7.469-30.426-13.159-38.416-1.132-1.591-2.059-3.374-2.059-3.963 0-.588 2.72-4.23 6.045-8.093l6.044-7.023 3.916 1.997C196.607 65.33 199.896 66 203.81 66c4.917 0 6.553-.481 9.909-2.911 10.071-7.296 13.96-20.869 9.625-33.593-1.986-5.828-9.026-13.282-13.363-14.15-1.663-.332-3.265-.996-3.561-1.475-.697-1.128-4.956-1.121-7.184.012-.955.486-3.017 1.486-4.584 2.222-3.824 1.797-8.364 6.52-10.952 11.395-2.81 5.294-3.06 19.246-.438 24.395l1.729 3.395-5.595 6.924c-3.077 3.809-6.257 7.179-7.066 7.49-.87.334-2.974-.894-5.151-3.007-20.106-19.517-54.335-20.024-75.94-1.125-2.886 2.525-5.676 4.442-6.199 4.26-.523-.183-3.627-3.478-6.897-7.322l-5.946-6.991 1.615-3.009c1.133-2.112 1.625-5.695 1.651-12.01.032-7.663-.333-9.724-2.452-13.875-2.821-5.523-8.177-10.454-12.282-11.307-1.524-.317-3.013-.968-3.309-1.447-.742-1.201-6.161-1.1-6.92.129m-4.207 11.25c-9.573 6.776-9.569 22.915.006 29.852 8.806 6.379 19.024 1.34 21.806-10.753 1.583-6.885-.17-12.761-5.251-17.599-3.411-3.248-4.57-3.75-8.66-3.75-3.289 0-5.687.683-7.901 2.25m147.879 1.213c-5.966 5.39-7.478 12.349-4.55 20.941C191.65 53.356 197.477 58 202.918 58c10.87 0 18.58-15.223 13.126-25.914-3.157-6.188-7.34-9.086-13.118-9.086-4.209 0-5.475.501-8.754 3.463M115.5 61.867c-9.505 2.731-16.428 6.999-24.5 15.103-8.73 8.765-14.509 19.332-18.056 33.013-1.899 7.328-2.119 10.184-1.654 21.484.776 18.863 5.465 31.779 16.255 44.779 10.752 12.954 24.737 19.824 40.403 19.849 13.635.022 20.249-2.176 31.256-10.387 30.031-22.401 35.874-70.573 12.423-102.428-13.681-18.584-36.146-27.155-56.127-21.413m4.509 19.988c-6.068 3.255-9.094 8.068-10.255 16.311-1.771 12.579-1.479 15.678 2.199 23.334 5.972 12.431 10.23 16.5 17.265 16.5 6.036 0 10.157-3.946 15.355-14.705 2.897-5.994 4.691-11.07 4.686-13.255-.015-6.626-3.055-19.945-5.258-23.039-4.709-6.612-16.529-9.148-23.992-5.146m2.305 8.095c-4.187 2.553-5.314 4.87-5.314 10.925 0 2.754-.45 5.285-1 5.625-1.869 1.155-.893 4.983 3.308 12.983 2.554 4.863 5.227 8.556 6.839 9.448 2.46 1.36 2.883 1.281 6-1.125 2.227-1.719 4.5-5.177 6.769-10.295 3.052-6.888 3.291-8.049 2.25-10.93-.641-1.773-1.166-5.003-1.166-7.179 0-9.102-9.731-14.302-17.686-9.452M18.008 112.217c-8.175 4.155-11.428 12.657-8.548 22.342 3.068 10.318 12.675 14.431 20.805 8.907 9.993-6.791 10.252-22.405.494-29.83-4.906-3.734-7.606-4.034-12.751-1.419m211.081-.419c-1.876.936-4.78 3.406-6.455 5.489-5.956 7.41-4.28 20.211 3.389 25.895 8.17 6.055 19.515.914 22.087-10.008 1.991-8.45-1.477-16.835-8.64-20.892-4.713-2.67-5.89-2.725-10.381-.484M.252 128.5c.011 2.2.216 2.982.455 1.738.239-1.244.23-3.044-.02-4s-.446.062-.435 2.262m106.332 10.535c-7.227 4.799-10.351 7.653-12.14 11.089-1.707 3.281-3.71 15.461-2.942 17.884.316.993 2.469 2.57 4.786 3.506 6.064 2.448 23.868 5.487 32.131 5.483 11.624-.005 32.508-4.216 36.447-7.348 1.887-1.501.7-12.462-2.04-18.833-1.733-4.027-3.342-5.685-9.539-9.83-4.1-2.742-8.238-4.986-9.196-4.986-.959 0-2.737 1.059-3.952 2.352-2.92 3.109-9.336 4.959-14.29 4.122-2.172-.366-5.955-2.198-8.407-4.07-2.453-1.872-4.568-3.38-4.701-3.351-.132.029-2.903 1.821-6.157 3.982m-.345 9.755c-4.37 3.082-5.512 4.544-6.75 8.642-.819 2.712-1.489 5.097-1.489 5.301 0 1.278 8.771 3.556 18.799 4.883 9.667 1.279 13.352 1.345 21.201.38 7.969-.979 17.572-3.183 20.145-4.623 1.081-.605-1.15-8.719-2.953-10.743-.931-1.045-3.695-3.155-6.144-4.69-4.348-2.725-4.51-2.748-7-1.017-7.709 5.359-20.836 5.199-26.943-.328-2.393-2.166-2.837-2.056-8.866 2.195M49 199.706c-2.595.949-6.123 4.654-8.097 8.504-5.484 10.694 1.949 25.797 12.691 25.786 14.468-.014 20.54-20.505 9.26-31.246-3.323-3.164-4.596-3.738-8.146-3.671-2.314.043-4.883.326-5.708.627m148.418.263c-1.144.463-3.27 2.255-4.723 3.982-7.132 8.475-5.342 22.636 3.546 28.054 12.764 7.783 26.619-8.707 19.846-23.621-3.499-7.705-11.504-11.313-18.669-8.415" fill="#1976D2" fill-rule="evenodd"/></svg>