<svg xmlns="http://www.w3.org/2000/svg" width="256" height="256"><path fill="#1976D2" fill-opacity=".016" fill-rule="evenodd" d="M0 128.004v128.004l128.25-.254 128.25-.254.254-127.75L257.008 0H0v128.004m.485.496c0 70.4.119 99.053.265 63.672.146-35.38.146-92.98 0-128C.604 29.153.485 58.1.485 128.5"/><path fill="#1976D2" fill-opacity=".406" fill-rule="evenodd" d="M120 11.592c-8.913 3.854-13.883 13.193-11.912 22.382 1.299 6.06 6.429 12.203 12.139 14.537l4.273 1.747-6.089 1.275c-13.954 2.923-27.044 12.994-32.852 25.276-2.601 5.502-3.523 6.488-8 8.554C63.892 91.67 53.85 104.638 51.126 119.5l-.733 4-1.816-3.762c-3.446-7.138-11.038-11.75-19.295-11.722-5.836.021-11.357 2.951-15.687 8.327-2.82 3.502-3.095 4.484-3.095 11.073 0 9.571 3.055 14.575 11.166 18.289 10.514 4.813 20.628 1.725 26.288-8.026l2.798-4.821.683 4.554c1.813 12.096 12.983 26.284 25.39 32.251 5.332 2.564 6.175 3.414 8.754 8.837 3.538 7.439 13.083 17.282 20.311 20.944 2.934 1.487 8.546 3.545 12.472 4.575 3.926 1.029 6.493 1.896 5.704 1.926-.789.03-3.428 1.02-5.864 2.199-9.952 4.818-13.475 18.304-7.317 28.013 3.393 5.351 11.308 9.843 17.343 9.843 10.979 0 19.772-8.895 19.772-20 0-8.546-5.134-15.779-13.504-19.024-2.954-1.145-2.894-1.188 4.313-3.039 4.021-1.032 9.626-3.128 12.457-4.657 7.133-3.852 15.104-12.255 18.857-19.879 2.918-5.927 3.646-6.654 9.576-9.574 11.953-5.884 21.619-18.232 24.629-31.461l1.335-5.866 1.788 3.762c7.742 16.289 31.986 15.094 37.579-1.853 4.442-13.459-6.992-27.406-21.481-26.205-7.399.614-12.548 4.146-15.926 10.925-2.094 4.202-2.623 4.751-2.623 2.724 0-3.873-3.644-13.623-7.11-19.025-4.183-6.519-11.933-13.305-18.965-16.607-5.244-2.462-6.063-3.289-8.61-8.688-5.79-12.273-19.859-23.138-33.585-25.938l-5.948-1.213 3.928-1.177c4.802-1.439 10.821-7.253 12.371-11.95 1.755-5.319.698-13.479-2.341-18.072-5.022-7.588-16.561-11.128-24.74-7.591m31.124 60.484C153.511 78.35 156 90.505 156 95.886v3.709l9.25 1.17c8.016 1.013 14.415 2.69 22.25 5.832 3.536 1.417-3.105-5.687-9.204-9.847-3.909-2.667-6.566-3.75-9.197-3.75-4.495 0-6.096-1.429-6.108-5.45-.012-3.929-4.688-11.972-9.868-16.974l-4.063-3.923 2.064 5.423m-50.072.484c-4.616 5.007-7.996 11.528-8.03 15.49-.029 3.382-1.757 4.948-5.472 4.959-3.888.012-12.032 4.709-16.55 9.545-2.471 2.645-2.912 3.515-1.5 2.96 5.898-2.32 15.805-4.576 22.567-5.14l7.655-.638.573-8.122c.315-4.467 1.68-11.608 3.033-15.868S105.668 68 105.521 68c-.146 0-2.158 2.052-4.469 4.56m14.958 16.953c-7.394 3.525-23.135 19.129-26.214 25.987-3.1 6.904-3.169 19.033-.145 25.619 2.62 5.708 18.281 21.749 24.418 25.011 3.71 1.972 5.896 2.355 13.431 2.354 11.68-.003 15.912-2.19 27.776-14.351 11.065-11.342 13.228-15.721 13.151-26.633-.076-10.971-2.457-15.6-13.775-26.79-11.185-11.058-14.708-12.939-25.152-13.434-7.022-.333-8.671-.06-13.49 2.237m50.786 20.436c5.344 5.345 7.564 10.64 7.568 18.051.003 7.435-1.67 11.46-7.224 17.378l-3.64 3.879 6.5-.575c13.556-1.2 25.687-6.84 30.029-13.962 7.321-12.007-6.86-25.296-29.211-27.374l-7.304-.678 3.282 3.281m-97.487 42.256C72.86 157.007 82.633 163 86.914 163c4.423 0 6.086 1.432 6.086 5.24 0 4.96 6.672 15.947 11.714 19.291l2.215 1.468-1.92-4.477C102.621 178.95 100 166.51 100 160.744v-4.339l-9.645-1.219c-5.305-.67-12.703-2.281-16.441-3.581l-6.795-2.363 2.19 2.963m111.691-.1c-3.025 1.078-9.827 2.471-15.115 3.095l-9.614 1.136-.607 7.582c-.533 6.673-2.803 16.563-5.182 22.582-.613 1.55-.072 1.33 2.405-.976 4.602-4.288 9.117-11.745 9.801-16.188.778-5.059 1.92-6.334 5.684-6.345 3.876-.012 11.991-4.612 16.574-9.395 3.921-4.091 3.645-4.195-3.946-1.491"/><path fill="#1976D2" fill-opacity=".289" fill-rule="evenodd" d="M121.5 11.207c-8.806 3.078-14.052 11.126-13.284 20.379.727 8.772 5.842 14.424 16.284 17.993 1.428.488.101 1.051-4.633 1.967-3.648.707-9.273 2.526-12.5 4.043-7.903 3.716-18.122 14.01-21.751 21.911-2.54 5.528-3.204 6.193-8.436 8.451-7.163 3.091-17.77 13.455-21.494 21-1.48 2.998-3.23 8.061-3.888 11.25-1.298 6.284-2.223 7.226-3.215 3.274-.994-3.96-7.274-10.192-12.147-12.052-15.378-5.874-30.874 9.667-24.993 25.066 3.412 8.936 14.495 14.96 23.187 12.604 7.534-2.043 12.107-6.508 14.944-14.593.518-1.475 1.057-.336 2.052 4.336 2.894 13.591 12.329 25.857 24.776 32.211 6.111 3.119 7.059 4.028 9.792 9.393 6.697 13.145 20.034 22.989 34.693 25.609 19.284 3.446 40.314-7.328 48.613-24.906 2.822-5.976 3.413-6.563 9.945-9.859 12.494-6.306 21.972-18.749 24.65-32.362 1.06-5.39 2.905-7.297 2.905-3.004 0 2.9 7.65 10.811 11.774 12.175 4.568 1.511 12.344 1.432 15.434-.155 7.891-4.055 12.924-14.081 10.858-21.63-1.5-5.483-4.562-10.028-8.307-12.329-11.242-6.91-24.122-3.206-29.254 8.413l-2.256 5.108-1.227-6c-2.79-13.65-13.381-27.266-25.807-33.178-5.239-2.493-5.987-3.278-8.982-9.429-6.157-12.645-17.585-21.386-32.563-24.905l-7.139-1.678 3.985-1.307c5.824-1.91 8.278-3.791 10.95-8.395 5.143-8.86 4.133-17.42-2.849-24.135-5.993-5.764-13.255-7.665-20.117-5.266m28.308 58.892c2.795 6.593 4.354 13.496 5.059 22.401l.633 8 8.273.686c8.536.707 17.564 2.903 22.557 5.485 4.27 2.208 4.269 1-.002-3.75C180.989 96.983 174.417 93 169.959 93 165.53 93 163 90.551 163 86.262c0-3.731-7-14.48-11.779-18.088l-3.279-2.475 1.866 4.4m-48.52 1.204C96.203 76.82 93 82.898 93 87.032 93 90.986 90.986 93 87.032 93c-5.35 0-16.349 6.987-19.105 12.136-.964 1.802-.841 1.801 3.857-.051 5.08-2.002 12.902-3.618 22.252-4.596l5.536-.579 1.17-9.705c.644-5.338 2.098-12.384 3.23-15.658 1.133-3.273 1.925-6.355 1.761-6.847-.164-.493-2.164 1.129-4.445 3.603m20.674 15.566c-7.177 1.515-12.533 5.14-22.08 14.941-11.072 11.368-13.383 16.123-13.239 27.239.127 9.735 2.645 14.397 14.037 25.982 11.658 11.858 16.26 14.322 26.82 14.358 10.348.036 16.348-3.075 27.563-14.29 11.12-11.12 13.913-16.469 13.927-26.671.016-11.423-1.899-15.382-12.904-26.669-6.121-6.278-11.393-10.714-14.586-12.273-5.444-2.656-13.952-3.796-19.538-2.617M163 106.485c0 .354 1.414 1.834 3.143 3.289 4.522 3.805 7.835 11.523 7.847 18.28.012 6.597-3.503 14.517-8.193 18.464-1.677 1.41-2.814 2.799-2.527 3.085.943.943 16.907-1.697 22.17-3.666 10.817-4.048 18.584-12.997 17.109-19.714-1.66-7.558-8.852-13.704-20.049-17.132-6.334-1.939-19.5-3.699-19.5-2.606m-95.939 43.63c1.371 2.561 9.567 9.48 13.365 11.283 1.857.881 4.701 1.602 6.32 1.602 3.771 0 6.254 2.763 6.254 6.961 0 1.816.969 4.931 2.153 6.921C97.382 180.628 105.914 190 107.096 190c.369 0-.365-2.588-1.631-5.75-2.343-5.851-3.928-13.279-4.986-23.362l-.589-5.613-8.195-.516c-5.194-.327-11.37-1.58-16.864-3.421-7.214-2.417-8.518-2.622-7.77-1.223m117.152.391c-4.846 2.106-17.347 4.494-23.524 4.494h-5.395l-.574 9.25c-.496 8.005-2.342 16.119-5.278 23.199-.754 1.816-.597 1.798 2.304-.268 4.733-3.37 11.254-13.723 11.254-17.866 0-4.373 1.929-6.315 6.274-6.315 4.159 0 14.383-6.305 17.639-10.878 2.471-3.47 2.092-3.698-2.7-1.616m-63.558 56.953c-4.885 1.741-8.105 4.773-10.646 10.023-5.349 11.049.727 23.351 13.345 27.019 7.201 2.093 13.905.168 18.981-5.45 7.787-8.62 7.063-20.104-1.757-27.848-5.669-4.978-12.737-6.306-19.923-3.744"/><path fill="#1976D2" fill-opacity=".49" fill-rule="evenodd" d="M121.53 11.548c-7.563 2.857-13.486 10.961-13.486 18.452 0 7.85 7.319 17.227 14.497 18.574 8.172 1.533 16.314-1.258 20.689-7.091 3.118-4.157 4.345-10.883 2.943-16.128-1.699-6.349-4.383-9.794-9.598-12.319-5.911-2.861-10.268-3.292-15.045-1.488m-5.611 41.285c-13.075 3.413-24.105 12.486-29.873 24.57-2.729 5.719-3.421 6.406-9.203 9.14-12.754 6.031-22.093 18.642-25.308 34.175-1.344 6.494-1.333 7.948.111 14.5 2.196 9.969 7.397 19.587 13.933 25.768 5.374 5.083 16.734 11.219 23.171 12.517l3.25.656v-4.534c0-4.452-.068-4.547-3.75-5.216-6.023-1.095-13.202-5.227-18.46-10.625-2.689-2.76-4.681-5.226-4.428-5.48.254-.253 3.539.648 7.3 2.004C79.53 152.783 91.086 155 97.122 155h3.238l-4.138-3.542c-6.164-5.276-10.28-14.321-10.344-22.732-.072-9.336 2.287-15.651 8.307-22.238L99.201 101h-4.643c-6.088 0-18.412 2.58-24.222 5.07-2.54 1.089-4.786 1.814-4.99 1.61-.203-.204 1.496-2.491 3.777-5.082 4.9-5.567 13.143-10.575 17.427-10.589 1.677-.005 3.59-.549 4.25-1.209.66-.66 1.204-2.573 1.209-4.25.013-4.092 4.843-12.28 9.984-16.925 2.302-2.079 4.386-3.579 4.633-3.333.246.246-.747 3.994-2.207 8.328-1.682 4.994-2.838 10.994-3.156 16.38l-.501 8.5 4.369-4.145c6.162-5.847 12.118-8.565 20.012-9.132 9.783-.702 16.622 1.739 23.995 8.565 3.224 2.985 5.862 4.805 5.862 4.043 0-5.304-2.464-19.011-4.498-25.024-1.341-3.962-2.218-7.424-1.949-7.693.801-.801 9.41 8.097 11.629 12.02 1.714 3.03 2.741 3.726 6.168 4.186 2.261.303 4.309.354 4.55.113 1.242-1.241-5.143-11.632-10.4-16.926-7.18-7.23-14.065-11.096-23.22-13.036-8.686-1.84-13.218-1.763-21.361.362m49.894 38.85c.721.289 1.584.253 1.916-.079.332-.332-.258-.568-1.312-.525-1.165.048-1.402.285-.604.604M21.5 110.164c-1.1.607-3.278 2.281-4.839 3.72-9.022 8.313-7.769 23.05 2.54 29.865 3.493 2.309 5.229 2.751 10.807 2.748 5.379-.002 7.316-.461 10.159-2.409 5.041-3.454 8.057-8.366 8.599-14.002 1.195-12.441-6.834-21.122-19.476-21.056-3.185.017-6.69.527-7.79 1.134"/></svg>